<svg width="92px" height="37px" viewBox="0 0 92 37" version="1.1" xmlns="http://www.w3.org/2000/svg" xmlns:xlink="http://www.w3.org/1999/xlink">
    <title>0D0E8EA0-2480-4A0D-B6DA-0B409F62E7C7SVG/</title>
    <defs>
        <polygon id="path-1" points="0.000317241379 -7.51378525e-15 91.8982713 -7.51378525e-15 91.8982713 35.902154 0.000317241379 35.902154"/>
    </defs>
    <g id="DoorDash-Delivery" stroke="none" stroke-width="1" fill="none" fill-rule="evenodd">
        <g id="Delivery---Home---DoorDash" transform="translate(-24.000000, -14.000000)">
            <g id="Casey's-logo" transform="translate(24.000000, 14.022989)">
                <mask id="mask-2" fill="red">
                    <use xlink:href="#path-1"/>
                </mask>
                <g id="Clip-2"/>
                <path d="M84.3294207,14.4677931 C84.3294207,12.9016782 85.8542943,11.4175172 87.9565471,10.6344598 C87.5853747,11.5412414 86.9260414,12.6954713 86.9260414,13.8084598 C86.9260414,14.3858391 87.1322483,14.8802069 87.6266161,15.3338621 C88.162754,15.8282299 89.3582253,16.3643678 90.3474897,16.6525287 C90.388731,15.2926207 91.8723632,12.3655402 91.8723632,11.1705977 C91.8723632,10.3050575 91.418708,9.43898851 90.4706851,8.61521839 C89.5226621,7.74914943 88.780846,7.37797701 87.7503402,7.37797701 C84.0819724,7.37797701 79.6712598,11.3350345 79.6712598,14.7152414 C79.6712598,16.8582069 80.9492138,18.177931 81.9797195,19.125954 C82.8452598,19.9090115 83.5463632,20.5276322 83.5463632,21.2689195 C83.5463632,22.1757011 82.7215356,22.7943218 81.4853517,22.7943218 C79.506823,22.7943218 77.8576966,21.5576092 77.7339724,20.1152184 C76.8277195,20.7745517 76.0853747,22.3824368 76.0853747,23.8248276 C76.0853747,26.9163448 78.3933057,28.7711494 82.1853977,28.7711494 C86.266708,28.7711494 89.2339724,26.1332874 89.2339724,22.5056322 C89.2339724,20.073977 87.9153057,18.7135402 86.4729149,17.4768276 C85.0299954,16.2406437 84.3294207,15.6637931 84.3294207,14.4677931 L84.3294207,14.4677931 Z M78.7232368,1.97852874 C78.898777,2.41685057 79.0642713,3.61708046 78.5588,6.30622989 C78.4059954,7.12048276 77.9608,8.91342529 77.6932598,9.76891954 C78.9918345,10.5207816 79.8378115,10.4155632 80.7853057,9.02710345 C82.488892,6.53094253 83.1339494,5.42852874 83.1339494,4.28645977 C83.1339494,3.7096092 82.8865011,3.174 81.9802483,2.63786207 C81.1141793,2.14296552 79.6305471,1.73108046 78.7232368,1.97852874 L78.7232368,1.97852874 Z M73.5717655,23.4948966 C75.5920644,17.1468966 76.4983172,13.6434943 76.4983172,11.6237241 C76.4983172,10.3870115 76.1689149,9.6451954 75.5095816,8.98586207 C74.8497195,8.36777011 73.984708,7.91411494 72.8717195,7.62595402 C72.9124322,10.4694943 68.954846,20.6090575 67.0180874,22.5468736 C66.6474437,22.9175172 66.358754,23.0830115 66.0293517,23.0830115 C65.6169379,23.0830115 65.3700184,22.7943218 65.3700184,22.2581839 C65.410731,20.5683448 69.0790989,14.7564828 69.0790989,11.5824828 C69.0790989,10.5937471 68.7576276,9.84241379 68.1310759,9.27455172 C67.1270069,8.3645977 65.7581103,7.9505977 64.7513977,7.87287356 C65.2870069,13.4790575 59.6813517,19.0841839 59.6813517,23.7835862 C59.6813517,26.0915172 61.1649839,27.5344368 63.3909609,27.5344368 C64.6271448,27.5344368 65.9463402,27.0395402 67.3892598,25.9683218 C66.0705931,28.9355862 63.8446161,30.0903448 61.6186391,30.0903448 C60.010754,30.0903448 58.8565241,29.5129655 57.8672598,28.4417471 C56.0124552,32.192069 57.9497425,35.9022069 62.4841793,35.9022069 C67.1005701,35.9022069 70.7276966,32.5637701 73.5717655,23.4948966 L73.5717655,23.4948966 Z M56.3841563,11.2118391 C57.0022483,11.2118391 57.3321793,11.7062069 57.3321793,12.4073103 C57.3321793,14.1383908 55.4361333,16.8169655 51.6445701,17.8485287 C52.5095816,14.6327586 54.8180414,11.2118391 56.3841563,11.2118391 L56.3841563,11.2118391 Z M51.4383632,28.7711494 C55.1479724,28.7711494 58.1982483,25.8445977 58.5276506,21.8050575 C57.2909379,22.5881149 55.5598575,23.1654943 54.3643862,23.1654943 C52.4270989,23.1654943 51.5203172,22.4643908 51.3146391,20.8982759 C58.4869379,19.9090115 61.7016506,16.1988736 61.7016506,12.2830575 C61.7016506,9.39774713 60.0118115,7.58418391 57.2496966,7.58418391 C51.8090069,7.58418391 46.0383862,15.6637931 46.0383862,23.2474483 C46.0383862,26.5451724 48.1818805,28.7711494 51.4383632,28.7711494 L51.4383632,28.7711494 Z M37.7134437,28.7711494 C41.7112138,28.7711494 44.6795356,26.1332874 44.6795356,22.5468736 C44.6795356,20.1564598 43.3190989,18.7547816 41.8761793,17.5598391 C40.3925471,16.3231264 39.6914437,15.7050345 39.6914437,14.4677931 C39.6914437,12.9016782 41.216846,11.4175172 43.3190989,10.6344598 C42.9479264,11.5412414 42.2885931,12.6954713 42.2885931,13.8084598 C42.2885931,14.3858391 42.4948,14.8802069 42.9891678,15.3338621 C43.524777,15.8282299 44.720777,16.3643678 45.7095126,16.6525287 C45.750754,15.2926207 47.2349149,12.3655402 47.2349149,11.1705977 C47.2349149,10.3050575 46.7812598,9.43898851 45.8332368,8.61521839 C44.8852138,7.74914943 44.1433977,7.37797701 43.112892,7.37797701 C39.4439954,7.37797701 35.0343402,11.3350345 35.0343402,14.7152414 C35.0343402,16.6937701 36.1758805,18.0261839 37.506708,19.2084368 C38.3373517,19.9449655 38.9940414,20.5064828 38.990869,21.351931 C38.9876966,22.299954 38.3315356,22.9598161 37.1773057,22.9598161 C35.528708,22.9598161 34.2914667,21.5576092 34.2914667,20.1564598 C33.1382943,20.7745517 32.2309839,22.5056322 32.2309839,24.1542299 C32.2309839,26.7508506 34.2502253,28.7711494 37.7134437,28.7711494 L37.7134437,28.7711494 Z M21.7213057,21.3931724 C21.7213057,18.8372644 25.224708,11.5412414 29.8410989,10.5937471 C27.6151218,16.899977 25.2659494,20.6095862 23.7817885,22.0937471 C23.3699034,22.5056322 23.0399724,22.6298851 22.6693287,22.6298851 C22.0919494,22.6298851 21.7213057,22.1344598 21.7213057,21.3931724 L21.7213057,21.3931724 Z M15.9501563,23.7835862 C15.9501563,26.2977241 17.3518345,28.2762529 19.742777,28.2762529 C21.5558115,28.2762529 23.4518575,26.8338621 25.3479034,23.7835862 C25.1009839,26.7096092 26.7501103,28.6061839 29.0992828,28.6061839 C29.8410989,28.6061839 30.6246851,28.3587356 31.0778115,27.9468506 C30.4179494,26.8751034 30.2535126,25.2265057 30.8721333,22.0112644 C31.572708,18.3428966 33.1800644,13.0666437 34.3750069,10.9231494 C34.0873747,10.2225747 32.9326161,9.80963218 31.9433517,9.68643678 C31.8196276,9.35650575 31.656777,9.02551724 31.3665011,8.61521839 C30.7521103,7.74650575 30.1710299,7.41921839 29.0992828,7.41921839 C26.8325931,7.41921839 24.1117195,8.94462069 21.7213057,11.3350345 C18.464823,14.5915172 15.9501563,19.0841839 15.9501563,23.7835862 L15.9501563,23.7835862 Z M10.0161563,22.7118391 C7.54273103,22.7118391 6.05909885,20.9395172 6.05909885,17.6417931 C6.05909885,11.7886897 10.6754897,5.39997701 15.1686851,4.20450575 C14.2206621,6.22427586 13.4783172,7.66666667 13.4783172,9.23331034 C13.4783172,11.1293563 15.3336506,12.3655402 17.682823,12.777954 C17.8070759,10.9231494 20.2382023,6.18303448 20.2382023,4.45195402 C20.2382023,3.37967816 19.7443632,2.26721839 18.7963402,1.4423908 C17.682823,0.411885057 16.8172828,-7.51378525e-15 15.5810989,-7.51378525e-15 C8.07886897,-7.51378525e-15 0.000317241379,10.3870115 0.000317241379,20.1152184 C0.000317241379,26.1332874 2.84438621,29.7604138 7.58450115,29.7604138 C11.7059954,29.7604138 14.5913057,26.5451724 14.5913057,22.6298851 C14.5913057,21.5988506 14.426869,20.7338391 14.1381793,20.1152184 C13.1076736,21.7638161 11.664754,22.7118391 10.0161563,22.7118391 L10.0161563,22.7118391 Z M90.9365011,27.1785977 C90.9365011,27.2885747 90.8868,27.3636552 90.7889839,27.4022529 C90.7350529,27.423931 90.6552138,27.433977 90.5484092,27.433977 L90.3205241,27.433977 L90.3205241,26.9163448 L90.5357195,26.9163448 C90.6758345,26.9163448 90.7773517,26.9337931 90.8408,26.9697471 C90.904777,27.0046437 90.9365011,27.0749655 90.9365011,27.1785977 L90.9365011,27.1785977 Z M90.0683172,26.743977 L90.0683172,28.1747356 L90.3205241,28.1747356 L90.3205241,27.6116322 L90.5193287,27.6116322 C90.6530989,27.6116322 90.7466851,27.6269655 90.7995586,27.6576322 C90.8899724,27.7105057 90.9343862,27.8204828 90.9343862,27.9849195 L90.9343862,28.0985977 L90.9402023,28.1445977 C90.9412598,28.1504138 90.9423172,28.1557011 90.9439034,28.1604598 L90.9470759,28.1747356 L91.1834207,28.1747356 L91.1744322,28.1572874 C91.1686161,28.1451264 91.1643862,28.1202759 91.1617425,28.0822069 C91.1596276,28.0446667 91.1585701,28.0092414 91.1585701,27.975931 L91.1585701,27.8717701 C91.1585701,27.7993333 91.1321333,27.7253103 91.080846,27.6502299 C91.0290299,27.574092 90.9470759,27.5275632 90.8355126,27.5095862 C90.9238115,27.4958391 90.9925471,27.4725747 91.0417195,27.4403218 C91.134777,27.380046 91.1813057,27.285931 91.1813057,27.157977 C91.1813057,26.9776782 91.1072828,26.8571264 90.9597655,26.7952644 C90.876754,26.7608966 90.7466851,26.743977 90.5690299,26.743977 L90.0683172,26.743977 Z M90.5938805,26.3410805 C90.9042483,26.3410805 91.1686161,26.4510575 91.3875126,26.6710115 C91.6053517,26.889908 91.7142713,27.1542759 91.7142713,27.4646437 C91.7142713,27.7771264 91.6053517,28.0436092 91.3875126,28.2635632 C91.1696736,28.4835172 90.9053057,28.5934943 90.5938805,28.5934943 C90.2829839,28.5934943 90.0180874,28.4835172 89.800777,28.2635632 C89.5839954,28.0436092 89.4750759,27.7771264 89.4750759,27.4646437 C89.4750759,27.1542759 89.5839954,26.889908 89.8023632,26.6710115 C90.0212598,26.4510575 90.2850989,26.3410805 90.5938805,26.3410805 L90.5938805,26.3410805 Z M91.8982713,27.4625287 C91.8982713,27.1029885 91.7713747,26.7963218 91.5170529,26.5435862 C91.2622023,26.2897931 90.9544782,26.1634253 90.5938805,26.1634253 C90.2353977,26.1634253 89.9292598,26.2897931 89.6759954,26.5435862 C89.4216736,26.7973793 89.294777,27.104046 89.294777,27.4625287 C89.294777,27.8252414 89.4206161,28.1334943 89.6722943,28.3878161 C89.9260874,28.6437241 90.232754,28.7711494 90.5938805,28.7711494 C90.9544782,28.7711494 91.2622023,28.6437241 91.5170529,28.3878161 C91.7713747,28.131908 91.8982713,27.8236552 91.8982713,27.4625287 L91.8982713,27.4625287 Z" id="Fill-1" fill="#E10600"/>
            </g>
        </g>
    </g>
</svg>