<svg class="shape shape-logo-border-new" xmlns="http://www.w3.org/2000/svg">
<symbol viewBox="-151.7 542 458.7 252" id="shape-logo-border-new"><title>logo-border-new</title><path class="logo-red" d="M307 668c0 69.6-102.7 126-229.3 126-126.7 0-229.4-56.4-229.4-126S-49 542 77.7 542C204.3 542 307 598.4 307 668"></path><path class="st1" d="M262 669.3c0 52.3-82.7 94.7-184.6 94.7-102 0-184.7-42.4-184.7-94.7s82.7-94.7 184.7-94.7c101.9 0 184.6 42.4 184.6 94.7"></path><path class="st2" d="M251.7 669.3c0 47.4-78.1 85.8-174.4 85.8C-19 755-97 716.6-97 669.3c0-47.4 78.1-85.8 174.4-85.8s174.3 38.4 174.3 85.8"></path><path class="st3" fill="#FFF" d="M9.9 746.4c-20.6-4.3-39.1-10.4-55-18.2-15.8-7.8-28.1-16.8-36.8-26.8-8.8-10.2-13.2-21-13.2-32.1s4.5-21.9 13.2-32.1c8.6-10 21-19 36.8-26.8 15.9-7.8 34.4-13.9 55-18.2 21.4-4.4 44.1-6.7 67.5-6.7s46.1 2.3 67.5 6.7c20.6 4.3 39.1 10.4 55 18.2 15.8 7.8 28.2 16.8 36.8 26.8 8.8 10.2 13.2 21 13.2 32.1s-4.5 21.9-13.2 32.1c-8.6 10-21 19-36.8 26.8-15.9 7.8-34.4 13.9-55 18.2-21.4 4.4-44.1 6.7-67.5 6.7s-46.2-2.2-67.5-6.7m-56.7-139.5c-16.2 8-29 17.3-38 27.7-9.4 10.9-14.2 22.6-14.2 34.6s4.8 23.7 14.2 34.6c8.9 10.4 21.7 19.7 38 27.7 33.2 16.3 77.3 25.3 124.2 25.3s91-9 124.2-25.3c16.2-8 29-17.3 38-27.7 9.4-10.9 14.2-22.6 14.2-34.6s-4.7-23.7-14.2-34.6c-9-10.4-21.7-19.7-38-27.7-33.2-16.3-77.3-25.3-124.2-25.3s-91 9-124.2 25.3"></path><path class="st1" d="M39.8 665.6H41c-.1-.7-.3-1.4-.6-2.1-1-1-2.2-.9-3.5-.9-1.5.3-2.9 1.5-3.8 3.2-2 7.8-3.3 16-5.2 24l-9.1.1-.6 3 12.7-.1c1.8-7.9 3.1-16.1 5.2-24 .8-1.6 2.2-2.8 3.7-3.2m38.3-4.9c-.5-2.4-2.1-4.3-3.9-5.4.4.7.8 1.5 1 2.4 1.1 3.7.1 7.5-.5 11l-4.2 21h-9.2l-.6 3h12.7l4.2-21c.6-3.5 1.7-7.3.5-11m-16 4.7c-.1-.8-.3-1.6-.9-2.1-1.6-1.5-4.1-.8-5.6.3l-1.4 2-5.1 24.1-9.1.1-.6 3 12.6-.1 5.1-24.1 1.4-2c1-.7 2.3-1.2 3.6-1.2M-.6 690.1c-.1-1.5.5-2.9.6-4.4-3.9 4.6-10 6.6-15.7 4.5-.3-.1-.7-.3-1-.5 1 1.6 2.5 2.9 4 3.5 5.1 1.9 10.4.4 14.3-3.1H-.6m-7-14.8c-.3 1.7.6 3 1.5 3.8.5.2.9.4 1.4.5-.1-.4-.1-.8 0-1.3l4.6-22.7c-1.2-.1-2.4-.1-3.6-.1l-3.9 19.8zm26-19.9l-7.1 34.4c-2.7.3-5.6.2-8.5.3-.2 1-.4 2-.4 3.1 4-.2 8.2 0 11.9-.4l7.7-37.4h-3.6zm178.9 24.3c-.6-2.4 0-5.4.5-7.5.9-3.8 3.1-8.4 6.4-8.6.3 0 .6 0 .9.1-.1-.6-.4-1.3-.6-1.9-.8-1.1-2.1-1.1-3.3-1.2-3.3.3-5.4 4.9-6.4 8.6-.6 2.6-1.4 6.6.2 9.1.5 1.1 1.4 1.3 2.3 1.4"></path><path class="st1" d="M219.5 659.5c-1-2-2.5-3.5-3.9-4.5.3.5.7 1 .9 1.6 3.2 7.2 1.1 16.1-1.6 22.4-5 9.6-13 12.7-21.6 11.5-2-.3-3.9-1-5.7-2.2 2.2 3.1 5.5 4.7 8.7 5.2 8.6 1.1 16.7-1.9 21.6-11.5 2.7-6.4 4.7-15.3 1.6-22.5M119 650.3c1.6 3 1.1 7.7-.4 10.5-1.7 3.5-4.8 5.1-7.4 6.8 1 1.3 1.3 3.4 2.6 3.9l.5-.8s0-.1-.1-.1c.1 0 .2-.1.2-.2l1.4-2.3h1.9c1.5-1.1 2.9-2.5 3.8-4.4 1.4-2.8 2-7.5.4-10.5-1-1.7-2.2-3-3.5-3.9.2.4.4.6.6 1m-19.8 29.9c.4.2.9.4 1.4.4v-.2c-.2-1.7.7-3.2 1.9-4 .5-.4 1.1-.8 1.7-1.1l-1.6-3.5c-1.2.1-2.2 1-3.1 1.6-1.1.8-2 2.2-1.9 4 .2 1 .7 2.2 1.6 2.8m28.8-9h-3.9c-1.3 3.4-3.6 6.4-6.1 9 1.3 3 3.2 5.8 4.5 9l-11.5.1c-1.1-4.8-3.1.1-5.4.4-4.4.9-9.5 1.3-13.5-1.3.2.4.4.7.7 1 4.2 4.7 10.5 4.4 15.8 3.3 2.3-.4 4.3-5.2 5.4-.4l11.5-.1c-1.3-3.2-3.2-5.9-4.5-9 3.2-3.3 6.1-7.3 7-12m-19-12.9c.3-1.3 1.4-2.2 2.6-2.4 0-.5 0-1-.1-1.5-.4-1.2-1.6-1.5-2.5-1.5-1.2.1-2.5 1.1-2.9 2.5-.3 1.9.6 3.5 1.3 5 .5-.1 1.1-.5 1.6-.9-.1-.4-.1-.8 0-1.2m-141 .8l11.8 31.5c.8 1.2 1.8 2 2.9 2.6L-29 662.1l26-25.7h-6l-23 22.7zm194.7 9.7H161l-.5 3h1.3c.2-.5.4-1.1.5-1.7.2-.3.4-1.3.4-1.3m-205.9-15.1c1.4-1.3 2.9-2.7 4.5-4.2.9-4.4 2-9.8 2.5-13.1h-3.5c-1.3 6.9-3.5 17.3-3.5 17.3m188.9 36.2c-1.4-.3-2.7-1-3.9-1.9 1.9 2.5 4.3 4.3 6.9 4.8 2.8 1 5.9.7 8.6-.2.7-1.2 1-2.9 1.4-4.6v-.2c-3.7 2.1-8.5 3.6-13 2.1m-188.5-19.5l-5.5 5-2.5 14.1h-10.3l-.6 3 13.9-.1 2.5-14.1 4.1-3.7c-.5-1.3-1-2.7-1.6-4.2"></path><path class="st1" d="M184.4 636.4c-.5 3.1-1.2 6.4-1.7 8.1l-17.7.2c-6.3 2.3-11.6 6.4-13.7 13.4-1.5 5.1-3.3 12.5 0 17.3.7.7 1.4 1.3 2.3 1.7-2.2-4.7-.7-11.4.7-16 2-7 7.3-11.1 13.6-13.4l17.7-.2c.7-2.3 1.6-7.4 2.1-11.1h-3.3z"></path><path class="st1" d="M173.9 688c-2.8 10.1-6.3 17.5-19.9 18.1H-18.3c-4.4-.6-7.4-1.6-9.6-3.3 2.7 3.5 6.1 5.4 12.6 6.3H157c13.7-.5 17.1-7.9 19.9-18l7.3-30.1h-3.7l-6.6 27z"></path><path class="st3" fill="#FFF" d="M51.7 653.8c.1.6.3 1.2.5 1.6 3.7-4.8 8.9-7 14.4-5.8 2.9.4 6.1 2.9 6.9 6.5 1.1 3.7.1 7.5-.5 11l-4.2 21H56.1l4.2-22.1c.2-1.4.4-3.3-.8-4.3-1.6-1.5-4.1-.8-5.6.3l-1.4 2-5.1 24.1-12.6.1 4.5-23c.2-1.1-.1-2.2-.6-3.2-1-1-2.2-.9-3.6-.9-1.5.4-2.9 1.5-3.8 3.2-2.1 7.8-3.3 16.1-5.2 24l-12.7.1 7.5-37.5c4-.5 8.2-.3 12.2-.3.1 1.4-.5 3-.5 4.6 3.8-4.8 9.3-6.6 14.8-5 1.7.5 3.5 1.5 4.3 3.6m-60.9 19.8c-.3 1.7.6 3 1.5 3.8 1.6.8 3.4.5 4.9-.3 2.1-1.3 2.7-4.2 3.5-6.7l4.1-19.7 12.5-.1-7.7 37.5c-3.8.4-8 .2-11.9.3 0-1.5.5-2.9.6-4.4-3.9 4.6-9.9 6.6-15.7 4.5-1.9-.7-3.7-2.4-4.6-4.6-1.1-2.4-.8-5.9-.3-8.5l5.1-24.3c4.2-.5 8.3-.4 12.4-.2l-4.4 22.7zM199.6 659c-3.3.3-5.5 4.9-6.4 8.6-.6 2.6-1.4 6.6.1 9.1.9 1.5 2.3 1.3 3.5 1.4 1.8-.3 3.3-1.7 4.5-3.7 1.9-4 3.6-9.7 1.5-14.4-.8-.9-2-.9-3.2-1m15.3-4.1c3.2 7.2 1.2 16.1-1.6 22.4-5 9.6-13 12.6-21.6 11.5-4-.7-8.1-2.8-10.1-7.8-3.1-8.6-.9-18.3 3.7-24.9 6.1-8.2 16-9.8 24.5-6.6 1.8 1.1 3.7 2.9 5.1 5.4m-114 15.4c-1.2.1-2.2 1-3.1 1.5-1.1.8-2 2.2-1.9 4 .2 1 .7 2.2 1.7 2.8 2.2 1.2 4.6-.1 6.2-2l-2.9-6.3zm6.4-19.1c-1.3.1-2.6 1.1-2.9 2.5-.3 1.9.6 3.5 1.3 5 1.2-.4 2.4-1.3 3.4-2.5.7-.9 1.1-2.1.7-3.5-.4-1.2-1.6-1.5-2.5-1.5m10.1-2.6c1.6 3 1.1 7.7-.4 10.5-1.7 3.5-4.8 5.1-7.4 6.8 1 1.3 1.3 3.4 2.6 3.8l2.1-3.3 9.2.1c-.9 4.7-3.8 8.7-7 12 1.3 3 3.2 5.8 4.5 9l-11.5.1c-1.1-4.8-3.1 0-5.4.4-5.3 1.1-11.6 1.5-15.8-3.3-2.6-3.1-3.5-8.2-2.4-12.3 1.4-5.7 6.3-9 10.4-10.7-1.2-2.3-2-5.4-1.5-8.4.6-4 3.5-7.6 6.6-9 5.4-2 12.5-2.1 16 4.3"></path><path class="st3" fill="#FFF" d="M-33.6 657.5l11.8 31.5c2.5 3.6 6.6 4.4 10.5 4.4l164.3-.2c2.9-.5 3.5-3.4 4.1-6.7v-.2c-3.7 2.1-8.5 3.6-13 2.1-4.1-.9-7.9-5.1-9.5-9.8-3.9-14.4 2.3-28.1 10.3-38.1 4.8-5 10.3-7.9 16.6-8.6h21.8c-.6 3.7-1.5 8.8-2.1 11.1l-17.7.2c-6.3 2.3-11.6 6.4-13.6 13.4-1.5 5.1-3.3 12.6 0 17.3 1.3 1.4 3 2.4 4.8 2 3-.6 5.5-3.7 6.1-7.3.1-.3.3-1.3.3-1.3h-5.2l1.9-11h21.7l-7.3 30.1c-2.8 10.1-6.2 17.5-19.9 18H-20c-9.1-1.2-12-4.2-15.6-11.1-3.7-9.8-4.9-13.6-8.9-24.5l-5.5 5-2.5 14-13.9.1 11.8-56h13.7c-1 6.2-4 20.2-4 20.2 6.4-6 15.5-14.2 21.4-20.2h15.8l-25.9 25.6z"></path><path class="st1" d="M219.9 685.2c0-2.7 2.2-4.9 4.9-4.9s4.9 2.2 4.9 4.9-2.2 4.9-4.9 4.9-4.9-2.1-4.9-4.9zm8.5 0c0-2.2-1.5-3.6-3.6-3.6s-3.6 1.4-3.6 3.6 1.5 3.6 3.6 3.6 3.6-1.4 3.6-3.6zm-1.2 2.7h-1.3l-1.2-2.2h-.7v2.2h-1.2v-5.3h2.6c1.4 0 2 .4 2 1.6 0 1-.5 1.4-1.4 1.4l1.2 2.3zm-1.8-3.1c.5 0 .8-.1.8-.7s-.7-.6-1.1-.6H224v1.2h1.4v.1z"></path><path class="st1" d="M261.7 668.2c0 52.3-82.7 94.7-184.6 94.7-102 0-184.7-42.4-184.7-94.7s82.7-94.7 184.7-94.7 184.6 42.4 184.6 94.7"></path><path class="logo-red" d="M251.5 668.2c0 47.4-78.1 85.8-174.4 85.8s-174.4-38.4-174.4-85.8 78.1-85.8 174.4-85.8 174.4 38.4 174.4 85.8"></path><path class="st3" fill="#FFF" d="M9.6 745.3c-20.6-4.3-39.1-10.4-55-18.2-15.8-7.8-28.1-16.8-36.8-26.8-8.8-10.2-13.2-21-13.2-32.1 0-11.1 4.5-21.9 13.2-32.1 8.6-10 21-19 36.8-26.8 15.9-7.8 34.4-13.9 55-18.2 21.4-4.4 44.1-6.7 67.5-6.7s46.1 2.3 67.5 6.7c20.6 4.3 39.1 10.4 55 18.2 15.8 7.8 28.2 16.8 36.8 26.8 8.8 10.2 13.2 21 13.2 32.1 0 11.1-4.5 21.9-13.2 32.1-8.6 10-21 19-36.8 26.8-15.9 7.8-34.4 13.9-55 18.2-21.4 4.4-44.1 6.7-67.5 6.7s-46.1-2.2-67.5-6.7m-56.7-139.5c-16.2 8-29 17.3-38 27.7-9.4 10.9-14.2 22.6-14.2 34.6 0 12.1 4.8 23.7 14.2 34.6 8.9 10.4 21.7 19.7 38 27.7 33.2 16.3 77.3 25.3 124.2 25.3s91-9 124.2-25.3c16.2-8 29-17.3 38-27.7 9.4-10.9 14.2-22.6 14.2-34.6 0-12.1-4.7-23.7-14.2-34.6-9-10.4-21.7-19.7-38-27.7-33.2-16.3-77.3-25.3-124.2-25.3s-91 9-124.2 25.3"></path><path class="st1" d="M39.6 664.5h1.2c-.1-.7-.3-1.4-.6-2.1-1-1-2.2-.9-3.5-.9-1.5.3-2.9 1.5-3.8 3.2-2 7.8-3.3 16-5.2 24l-9.1.1-.6 3 12.7-.1c1.8-7.9 3.1-16.1 5.2-24 .8-1.6 2.2-2.8 3.7-3.2M77.8 659.6c-.5-2.4-2.1-4.3-3.9-5.4.4.7.8 1.5 1 2.4 1.1 3.7.1 7.5-.5 11l-4.2 21H61l-.6 3h12.7l4.2-21c.7-3.5 1.7-7.3.5-11M61.8 664.3c-.1-.8-.3-1.6-.9-2.1-1.6-1.5-4.1-.8-5.6.3l-1.4 2-5.1 24.1-9.1.1-.6 3 12.6-.1 5.1-24.1 1.4-2c1-.7 2.4-1.2 3.6-1.2M-.9 689.1c-.1-1.5.5-2.9.6-4.4-3.9 4.6-10 6.6-15.7 4.5-.3-.1-.7-.3-1-.5 1 1.7 2.5 2.9 4 3.5 5.1 1.9 10.4.4 14.3-3.1-.7-.1-1.4-.1-2.2 0M-7.8 674.2c-.3 1.7.6 3 1.5 3.8.5.2.9.4 1.4.5-.1-.4-.1-.8 0-1.3l4.6-22.7c-1.2-.1-2.4-.1-3.5-.1l-4 19.8zM18.1 654.3L11 688.7c-2.7.3-5.6.2-8.5.3-.2 1-.4 2-.4 3.1 4-.2 8.2 0 11.9-.3l7.7-37.4-3.6-.1zM197 678.6c-.6-2.4 0-5.4.5-7.5.9-3.8 3.1-8.4 6.4-8.6.3 0 .6 0 .9.1-.1-.6-.4-1.3-.6-1.9-.8-1.1-2.1-1.1-3.3-1.2-3.3.3-5.4 4.9-6.4 8.6-.6 2.6-1.4 6.6.2 9.1.6 1.1 1.4 1.4 2.3 1.4"></path><path class="st1" d="M219.2 658.4c-1-2-2.5-3.5-3.9-4.5.3.5.7 1 .9 1.6 3.2 7.2 1.1 16.1-1.6 22.4-5 9.6-13 12.7-21.7 11.5-2-.3-3.9-1-5.7-2.2 2.2 3.1 5.5 4.7 8.7 5.2 8.6 1.1 16.7-1.9 21.6-11.5 2.8-6.3 4.8-15.3 1.7-22.5M118.7 649.2c1.6 3 1.1 7.7-.4 10.5-1.7 3.5-4.8 5.1-7.4 6.8 1 1.3 1.3 3.4 2.6 3.9l.5-.8s0-.1-.1-.1c.1 0 .2-.1.2-.2l1.4-2.3h1.9c1.5-1.1 2.9-2.4 3.8-4.4 1.4-2.8 2-7.5.4-10.5-1-1.7-2.2-3-3.5-3.9.2.4.4.7.6 1M98.9 679.1c.5.2.9.4 1.3.4v-.2c-.2-1.7.7-3.2 1.9-4 .5-.4 1.1-.8 1.7-1.1l-1.6-3.5c-1.2.1-2.2 1-3.1 1.6-1.1.8-2 2.2-1.9 4 .3 1.1.8 2.3 1.7 2.8M127.8 670.1h-3.9c-1.3 3.4-3.6 6.4-6.1 9 1.3 3 3.2 5.8 4.5 9l-11.5.1c-1.1-4.8-3.1.1-5.4.4-4.4.9-9.5 1.3-13.5-1.3.2.4.4.7.7 1 4.2 4.7 10.5 4.4 15.8 3.3 2.3-.4 4.3-5.2 5.4-.4l11.5-.1c-1.3-3.2-3.2-5.9-4.5-9 3.1-3.3 6.1-7.3 7-12M108.7 657.2c.3-1.3 1.4-2.2 2.6-2.4 0-.5 0-1-.1-1.5-.4-1.2-1.6-1.5-2.5-1.5-1.2.1-2.5 1.1-2.9 2.5-.3 1.9.6 3.5 1.3 5 .5-.1 1.1-.5 1.6-.9-.1-.4-.1-.8 0-1.2M-32.3 658.1l11.8 31.5c.8 1.2 1.8 2 2.9 2.6L-29.3 661l26-25.7h-6l-23 22.8zM162.4 667.8H160.7l-.5 3h1.3c.2-.5.4-1.1.5-1.7.2-.4.4-1.3.4-1.3M-43.5 652.7c1.4-1.3 2.9-2.7 4.5-4.2.9-4.4 2-9.8 2.5-13.1H-40c-1.2 6.9-3.5 17.3-3.5 17.3M145.5 688.8c-1.4-.3-2.7-1-3.9-1.9 1.9 2.5 4.3 4.3 6.9 4.8 2.8 1 5.9.7 8.6-.2.7-1.2 1-2.9 1.4-4.6v-.2c-3.8 2.1-8.6 3.6-13 2.1M-43.1 669.3l-5.5 5-2.5 14.1-10.3.1-.6 3 13.9-.1 2.5-14.1 4.1-3.7c-.5-1.3-1-2.7-1.6-4.3"></path><path class="st1" d="M184.1 635.3c-.5 3.1-1.2 6.4-1.7 8.1l-17.7.2c-6.3 2.3-11.6 6.4-13.7 13.4-1.5 5.1-3.3 12.5 0 17.3.7.7 1.4 1.3 2.3 1.7-2.2-4.7-.7-11.3.7-16 2-7 7.3-11.1 13.6-13.4l17.7-.2c.7-2.3 1.6-7.4 2.1-11.1h-3.3z"></path><path class="st1" d="M173.6 686.9c-2.8 10.1-6.3 17.5-19.9 18.1H-18.6c-4.4-.6-7.4-1.6-9.6-3.3 2.7 3.5 6.1 5.4 12.6 6.3h172.3c13.7-.5 17.1-7.9 19.9-18.1l7.3-30.1h-3.7l-6.6 27.1z"></path><path class="st3" fill="#FFF" d="M51.5 652.7c.1.6.3 1.2.5 1.6 3.7-4.8 8.9-7 14.4-5.8 2.9.4 6.1 2.9 6.9 6.5 1.1 3.7.1 7.5-.5 11l-4.2 21H55.9l4.2-22.1c.2-1.4.4-3.3-.8-4.3-1.6-1.5-4.1-.8-5.6.3l-1.3 2-5.1 24.1-12.6.1 4.5-23c.2-1.1-.1-2.2-.6-3.2-1-1-2.2-.9-3.6-.9-1.5.4-2.9 1.5-3.8 3.2-2.1 7.8-3.3 16.1-5.2 24l-12.7.1 7.5-37.5c4-.5 8.2-.3 12.2-.3.1 1.4-.5 3-.5 4.6 3.8-4.8 9.3-6.6 14.8-5 1.5.5 3.3 1.5 4.2 3.6M-9.5 672.6c-.3 1.7.6 3 1.5 3.8 1.6.8 3.4.6 4.9-.3 2.1-1.3 2.7-4.2 3.5-6.7l4.1-19.7 12.5-.1-7.7 37.5c-3.8.4-8 .2-11.9.3 0-1.5.5-2.9.6-4.5-3.9 4.6-9.9 6.6-15.7 4.5-1.8-.7-3.7-2.4-4.6-4.6-1.1-2.4-.8-5.9-.3-8.5l5.1-24.3c4.2-.5 8.3-.4 12.4-.2l-4.4 22.8zM199.3 657.9c-3.3.3-5.5 4.9-6.4 8.6-.6 2.6-1.4 6.6.1 9.1.9 1.5 2.3 1.3 3.5 1.4 1.8-.3 3.3-1.7 4.5-3.7 1.9-4 3.6-9.7 1.5-14.4-.7-.9-2-.9-3.2-1m15.3-4.1c3.2 7.2 1.2 16.1-1.6 22.4-5 9.6-13 12.7-21.6 11.5-4-.7-8.1-2.8-10.1-7.8-3.1-8.6-.9-18.3 3.7-24.9 6.1-8.2 16-9.8 24.6-6.6 1.7 1.1 3.7 2.9 5 5.4M100.6 669.2c-1.2.1-2.2 1-3.1 1.6-1.1.8-2 2.2-1.9 4 .2 1 .7 2.2 1.7 2.8 2.2 1.2 4.6-.1 6.2-2l-2.9-6.4zm6.4-19.1c-1.3.1-2.6 1.1-2.9 2.5-.3 1.9.6 3.5 1.3 5 1.2-.4 2.4-1.3 3.4-2.5.7-.9 1.1-2.1.7-3.5-.4-1.2-1.6-1.5-2.5-1.5m10.1-2.5c1.6 3 1.1 7.7-.4 10.5-1.7 3.5-4.8 5.1-7.4 6.8 1 1.3 1.3 3.4 2.6 3.9l2.1-3.3 9.2.1c-.9 4.7-3.8 8.7-7 12 1.3 3 3.2 5.8 4.5 9l-11.5.1c-1.1-4.8-3.1 0-5.4.4-5.3 1.1-11.6 1.5-15.8-3.3-2.6-3.1-3.5-8.2-2.4-12.3 1.4-5.7 6.3-9 10.4-10.7-1.2-2.3-2-5.4-1.5-8.4.6-4 3.5-7.6 6.6-9 5.5-2.2 12.5-2.2 16 4.2"></path><path class="st3" fill="#FFF" d="M-33.9 656.4l11.7 31.5c2.5 3.6 6.6 4.4 10.5 4.4l164.3-.2c2.9-.5 3.5-3.4 4.1-6.7v-.2c-3.7 2.1-8.5 3.6-13 2.1-4.1-.9-7.9-5.1-9.5-9.8-3.9-14.4 2.3-28.1 10.3-38.1 4.8-5 10.3-7.9 16.6-8.6h21.8c-.6 3.7-1.5 8.8-2.2 11.1l-17.7.2c-6.3 2.3-11.6 6.4-13.6 13.4-1.5 5.1-3.3 12.6 0 17.3 1.3 1.4 3 2.4 4.8 2 3-.6 5.5-3.7 6.1-7.3.1-.3.3-1.3.3-1.3h-5.2l1.9-11H179l-7.3 30.1c-2.8 10.1-6.2 17.5-19.9 18H-20.5c-9.1-1.2-12-4.2-15.6-11.1-3.7-9.8-4.9-13.6-8.9-24.5l-5.5 5-2.5 14-13.9.1 11.8-56h13.7c-1 6.2-4 20.2-4 20.2 6.4-6 15.5-14.2 21.4-20.2h15.8l-25.7 25.6z"></path><path class="st1" d="M219.6 684.2c0-2.7 2.2-4.9 4.9-4.9s4.9 2.2 4.9 4.9-2.2 4.9-4.9 4.9-4.9-2.2-4.9-4.9zm8.5 0c0-2.2-1.5-3.6-3.6-3.6s-3.6 1.4-3.6 3.6 1.5 3.6 3.6 3.6 3.6-1.4 3.6-3.6zm-1.2 2.6h-1.3l-1.2-2.2h-.8v2.2h-1.2v-5.3h2.6c1.4 0 2 .4 2 1.6 0 1-.5 1.4-1.4 1.4l1.3 2.3zm-1.8-3.1c.5 0 .8-.1.8-.7s-.7-.6-1.1-.6h-1.1v1.2h1.4v.1z"></path></symbol>
</svg>