<?xml version="1.0" encoding="utf-8"?>
<!-- Generator: Adobe Illustrator 23.0.2, SVG Export Plug-In . SVG Version: 6.00 Build 0)  -->
<svg version="1.1" xmlns="http://www.w3.org/2000/svg" xmlns:xlink="http://www.w3.org/1999/xlink" x="0px" y="0px"
	 viewBox="0 0 60.6 81.6" style="enable-background:new 0 0 60.6 81.6;" xml:space="preserve">
<style type="text/css">
	.st0{display:none;}
	.st1{display:inline;}
	.st2{clip-path:url(#SVGID_2_);fill:#F4F7F8;}
	.st3{clip-path:url(#SVGID_4_);fill:#FF9E18;}
	.st4{clip-path:url(#SVGID_4_);fill:#006450;}
	.st5{clip-path:url(#SVGID_4_);fill:#00A887;}
	.st6{clip-path:url(#SVGID_4_);fill:#93D500;}
	.st7{clip-path:url(#SVGID_4_);fill:#FFC844;}
</style>
<g id="Layer_1" class="st0">
	<g class="st1">
		<defs>
			<rect id="SVGID_1_" x="-292.7" y="9.5" width="347.2" height="67.6"/>
		</defs>
		<clipPath id="SVGID_2_">
			<use xlink:href="#SVGID_1_"  style="overflow:visible;"/>
		</clipPath>
		<path class="st2" d="M-292.7,9.5v67.6H43.4c0,0,11.1-12.6,11.1-35.5S43.4,9.5,43.4,9.5H-292.7z"/>
	</g>
</g>
<g id="Layer_2">
	<g>
		<defs>
			<rect id="SVGID_3_" width="60.6" height="81.6"/>
		</defs>
		<clipPath id="SVGID_4_">
			<use xlink:href="#SVGID_3_"  style="overflow:visible;"/>
		</clipPath>
		<path class="st3" d="M27.3,16.7V2.6c0-1.5-1.2-2.7-2.7-2.6c-2,0.1-3.9,0.3-5.8,0.6C19.6,7.2,22.5,12.5,27.3,16.7"/>
		<path class="st4" d="M0,60.2c14.4,11.4,27.3,6.7,27.3,21.4C9.9,80.9,0,73.2,0,60.2"/>
		<path class="st5" d="M27.3,69c-5.5-7.5-17.6-7.7-25.2-14.3c-1.4-1.2-2.1-3-2.1-4.9v-9.9c2.1,3.8,6.6,5.7,10.2,7.8
			C18.6,52.5,27.3,55,27.3,63V69z"/>
		<path class="st6" d="M27.3,51.3c-3.7-3.9-10.6-6.2-14.9-8.6C4.7,38.3,0,34.1,0,29.5v-7.4c0-2.4,0.2-4.5,0.6-6.4
			c3.2,8.5,8.1,13,14.6,17.1c5.9,3.7,12.1,6.5,12.1,10.4V51.3z"/>
		<path class="st7" d="M27.3,34.2c0,0-4.1-2.6-6.9-4.7c-7-5.1-14.4-10.2-15.8-19.5c-0.2-1.5,0.3-3,1.4-4c2.1-1.9,4.7-3.3,7.5-4.2
			c1.2,8.2,5.1,14.8,11.5,19.8c1.4,1.1,2.2,2.9,2.2,4.7V34.2z"/>
		<path class="st3" d="M34.6,1.9c-1.8,2.2-2.9,5.4-2.1,8.2c0.8,2.5,2.5,2.9,4.5,1C39.3,9,40.2,5.8,39.3,2
			C38.7-0.1,36.4-0.2,34.6,1.9"/>
		<path class="st7" d="M39.1,12.8c-2.4,0.7-5,2.6-6.3,5.5c-1.7,3.7,0.5,6.1,4.6,4.5c2.1-0.8,5.2-2.8,6.5-5.4
			C45.7,13.9,43.6,11.5,39.1,12.8"/>
		<path class="st6" d="M56.6,25.5c-3.2,0-7.9,1.5-11.1,4.5c-2.9,2.7-2.4,6.1,1.5,6c4-0.1,9.2-1.9,12.3-5.4
			C61.3,28.2,60.3,25.5,56.6,25.5"/>
		<path class="st7" d="M38.5,24.8c-2.5,0.6-4.7,1.7-5.9,4.2c-0.9,1.9,0.4,3.3,2.6,2.8c2.4-0.5,4.7-1.6,6.1-4.5
			C42.3,25.5,40.9,24.3,38.5,24.8"/>
		<path class="st5" d="M56.3,46.7c-4.5,0.5-11,3.3-13.4,7.1c-1.4,2.1-0.2,4.1,2.3,3.9c5-0.3,11-3.1,13.9-6.8
			C60.7,48.6,59.3,46.3,56.3,46.7"/>
		<path class="st5" d="M41.2,59.3c-3.8,0.9-9.1,4.5-9,9.3c0,0.9,0.7,1.5,1.8,1.3c4.1-0.7,8.9-4.7,9.2-9.1
			C43.3,59.6,42.5,59,41.2,59.3"/>
		<path class="st5" d="M37.2,52.8c-1.8,0.5-4,1.9-4.8,4.8c-0.3,1.1,0.7,2,2.3,1.5c1.7-0.6,4-2.4,4.5-4.9
			C39.3,53.2,38.4,52.5,37.2,52.8"/>
		<path class="st5" d="M59.3,43c-0.8-0.4-2.7-0.6-3.7,0.2c-0.5,0.4-0.4,1.1,0.4,1.4c0.9,0.4,2.5,0.5,3.6-0.4
			C60,43.9,59.9,43.3,59.3,43"/>
		<path class="st4" d="M47.3,70.7c-4.7-0.2-10.9,0.7-14.4,5.3c-1.5,1.9-0.3,4.5,2,4.9c3.8,0.7,11.2-0.3,15.1-5.7
			C51.2,73.4,50,70.8,47.3,70.7"/>
		<path class="st6" d="M39.2,38.1c-2.7,1.3-5.9,4.5-6.7,8.1c-0.8,3.8,1.3,5.3,5,3.6c2.6-1.2,5.9-3.8,7.2-8.6
			C45.5,38.1,43.3,36.2,39.2,38.1"/>
		<path class="st4" d="M56.1,64.2c-1.6,0.7-3.6,2.7-4,4.6c-0.3,1.5,0.7,2.3,2,1.7c1.8-0.8,3.7-2.8,4-4.7
			C58.4,64.3,57.6,63.5,56.1,64.2"/>
		<path class="st5" d="M58.2,56.4c-1.8-0.2-4.9,0.1-6.8,2.7c-0.9,1.2-0.1,2.5,1.3,2.8c2.3,0.5,5.5-0.3,7.3-2.7
			C61,58,60.2,56.7,58.2,56.4"/>
		<path class="st7" d="M49.6,21.9c-1.6-0.5-4.1-0.5-5.7,1.2c-0.6,0.6-0.8,1.8,0.6,2.3c1.6,0.7,4.2,0.5,5.6-0.8
			C51,23.7,51,22.4,49.6,21.9"/>
		<path class="st4" d="M49.5,63.4c-2,0.1-4.2,1.2-5.3,3.1c-0.7,1.2,0.1,2.2,1.4,2.1c1.5,0,4.5-1.2,5.4-3.1
			C51.6,64.5,51,63.2,49.5,63.4"/>
		<path class="st7" d="M55.4,11.4c-3.2,0.4-5.8,1.9-7.4,4.4c-1.7,2.6,0.3,4.3,2.7,4.3c2.7,0,6.6-2.2,7.9-5
			C59.6,12.9,58,11.1,55.4,11.4"/>
		<path class="st7" d="M49.7,4.9C48,6,46.9,7.6,46.7,9.4c-0.2,2,1.4,2.4,2.7,1.8c1.6-0.8,3-3.4,3-5.2C52.4,4.5,51,4,49.7,4.9"/>
		<path class="st6" d="M58.6,35.2c-2.1,0-4.6,1-6,2.4c-1.7,1.7-0.9,3.2,1.1,3.1c2.1-0.1,5.2-1.1,6.5-2.9
			C61.2,36.3,60.6,35.2,58.6,35.2"/>
		<path class="st3" d="M44.4,2C43,2.8,42,4.2,42.1,6c0.1,1.2,1.1,1.4,1.9,0.9c1.1-0.7,2.5-2.1,2.3-4.1C46.3,2.1,45.5,1.4,44.4,2"/>
		<path class="st6" d="M49.9,42.4c-1.5,0-3.7,0.9-4.6,2.4c-0.7,1.2,0.2,2.2,1.2,2.2c1.7,0.1,3.8-1,4.7-2.3
			C52.1,43.5,51.6,42.4,49.9,42.4"/>
		<path class="st6" d="M57.9,19.1c-1,0.2-2.3,0.9-2.9,1.9c-0.9,1.3,0.1,2,1.4,1.7c1.1-0.3,2.4-0.9,3-1.9
			C60.1,19.5,59.5,18.8,57.9,19.1"/>
		<path class="st6" d="M37.4,33.4c-1,0.2-2.3,0.9-2.9,1.9c-0.9,1.3,0.1,2,1.4,1.7c1.1-0.3,2.4-1,3-1.9C39.6,33.7,39,33.1,37.4,33.4"
			/>
	</g>
</g>
</svg>
